<svg width="28" height="28" viewBox="0 0 28 28" fill="none" xmlns="http://www.w3.org/2000/svg">
<g clip-path="url(#clip0_309_4846)">
<path d="M14 28C21.7319 28 28 21.732 28 14C28 6.268 21.7319 0 14 0C6.26813 0 0 6.268 0 14C0 21.732 6.26813 28 14 28Z" fill="#F0D288"/>
<path d="M23.714 6.36133L18.5214 4.44733L11.0541 15.209L11.7976 10.325L7.72894 7.95493L0.243652 16.9596C0.594098 18.7401 1.2744 20.4004 2.21755 21.8733L6.68334 16.4794L5.04003 22.8145L10.132 24.6777L17.6973 13.7848L16.0398 20.014L20.1647 22.4249L28.0814 14.4443C28.0831 14.3547 28.084 14.2643 28.084 14.1743C28.084 12.2955 27.7226 10.5017 27.0662 8.86042L22.4675 13.5152L23.714 6.36133Z" fill="#121723"/>
</g>
<defs>
<clipPath id="clip0_309_4846">
<rect width="28" height="28" rx="14" fill="white"/>
</clipPath>
</defs>
</svg>
