<svg width="461" height="12" viewBox="0 0 461 12" fill="none" xmlns="http://www.w3.org/2000/svg">
<path d="M1 1C9.19952 1 9.19952 11 17.399 11C25.5985 11 25.5985 1 33.7981 1C41.9976 1 41.9976 11 50.1779 11C58.3776 11 58.3776 1 66.5577 1C74.7574 1 74.7574 11 82.9374 11C91.1371 11 91.1371 1 99.3362 1C107.536 1 107.536 11 115.736 11C123.935 11 123.935 1 132.134 1C140.334 1 140.334 11 148.534 11C156.733 11 156.733 1 164.933 1C173.132 1 173.132 11 181.332 11C189.531 11 189.531 1 197.731 1C205.93 1 205.93 11 214.11 11C222.31 11 222.31 1 230.49 1C238.69 1 238.69 11 246.87 11C255.07 11 255.07 1 263.269 1C271.469 1 271.469 11 279.668 11C287.867 11 287.867 1 296.067 1C304.267 1 304.267 11 312.466 11C320.665 11 320.665 1 328.865 1C337.065 1 337.065 11 345.264 11C353.464 11 353.464 1 361.663 1C369.863 1 369.863 11 378.043 11C386.243 11 386.243 1 394.423 1C402.623 1 402.623 11 410.803 11C419.002 11 419.002 1 427.201 1C435.401 1 435.401 11 443.601 11C451.8 11 451.801 1 460 1" stroke="#A1A6B4" stroke-miterlimit="10" stroke-linecap="square"/>
</svg>
