<svg width="706" height="12" viewBox="0 0 706 12" fill="none" xmlns="http://www.w3.org/2000/svg">
<path fill-rule="evenodd" clip-rule="evenodd" d="M0.5 0.5H1C5.33178 0.5 7.51572 3.16696 9.54243 5.64193L9.57623 5.68321C11.6346 8.19671 13.5453 10.5 17.3788 10.5C21.2123 10.5 23.1229 8.19671 25.1813 5.68321L25.2151 5.64193C27.2419 3.16696 29.4258 0.5 33.7576 0.5C38.0919 0.5 40.2758 3.17001 42.3013 5.64637L42.3316 5.68343C44.388 8.19743 46.2937 10.5 50.1172 10.5C53.9508 10.5 55.8615 8.19672 57.9173 5.68343L57.9549 5.63749C59.9777 3.16433 62.1569 0.5 66.4768 0.5C70.8112 0.5 72.9951 3.17007 75.0207 5.64646L75.0509 5.68343C77.1073 8.19744 79.0129 10.5 82.8363 10.5C86.6699 10.5 88.5806 8.1967 90.639 5.68321L90.6729 5.64181C92.6995 3.16689 94.8833 0.5 99.2148 0.5C103.547 0.5 105.731 3.16696 107.757 5.64193L107.791 5.6832C109.85 8.1967 111.76 10.5 115.594 10.5C119.427 10.5 121.338 8.19673 123.396 5.68321L123.43 5.64206C125.457 3.16705 127.641 0.5 131.973 0.5C136.304 0.5 138.488 3.16696 140.515 5.64193L140.549 5.6832C142.607 8.1967 144.518 10.5 148.352 10.5C152.185 10.5 154.095 8.19673 156.154 5.68321L156.188 5.64206C158.214 3.16705 160.398 0.5 164.73 0.5C169.062 0.5 171.246 3.16698 173.273 5.64195L173.306 5.68321C175.365 8.19671 177.275 10.5 181.109 10.5C184.943 10.5 186.853 8.19671 188.912 5.68321L188.945 5.6419C190.972 3.16694 193.156 0.5 197.488 0.5C201.822 0.5 204.006 3.17 206.031 5.64636L206.062 5.68343C208.118 8.19743 210.024 10.5 213.847 10.5C217.681 10.5 219.592 8.19672 221.648 5.68343L221.685 5.63747C223.708 3.16431 225.887 0.5 230.207 0.5C234.541 0.5 236.725 3.17007 238.751 5.64646L238.781 5.68343C240.838 8.19744 242.743 10.5 246.567 10.5C250.4 10.5 252.311 8.1967 254.369 5.68321L254.403 5.64179C256.43 3.16688 258.614 0.5 262.945 0.5C267.277 0.5 269.461 3.16694 271.488 5.64191L271.521 5.6832C273.58 8.1967 275.491 10.5 279.324 10.5C283.158 10.5 285.068 8.19673 287.126 5.68321L287.16 5.64203C289.187 3.16703 291.371 0.5 295.703 0.5C300.035 0.5 302.219 3.16698 304.245 5.64196L304.279 5.6832C306.338 8.1967 308.248 10.5 312.082 10.5C315.915 10.5 317.826 8.19673 319.884 5.68321L319.918 5.64209C321.945 3.16707 324.128 0.5 328.46 0.5C332.792 0.5 334.976 3.16698 337.003 5.64195L337.037 5.68321C339.095 8.19671 341.006 10.5 344.839 10.5C348.673 10.5 350.583 8.19671 352.642 5.68321L352.676 5.64196C354.702 3.16698 356.886 0.5 361.218 0.5C365.552 0.5 367.736 3.17004 369.762 5.64642L369.792 5.68343C371.848 8.19743 373.754 10.5 377.578 10.5C381.411 10.5 383.322 8.19671 385.378 5.68343L385.415 5.63747C387.438 3.16431 389.617 0.5 393.937 0.5C398.272 0.5 400.456 3.17009 402.481 5.64649L402.511 5.68343C404.568 8.19744 406.473 10.5 410.297 10.5C414.13 10.5 416.041 8.1967 418.099 5.68321L418.133 5.64177C420.16 3.16686 422.344 0.5 426.675 0.5C431.007 0.5 433.191 3.16694 435.218 5.64191L435.252 5.6832C437.31 8.1967 439.221 10.5 443.054 10.5C446.888 10.5 448.799 8.19671 450.857 5.6832L450.891 5.6419C452.918 3.16694 455.102 0.5 459.433 0.5C463.768 0.5 465.952 3.17004 467.977 5.64642L468.007 5.68343C470.064 8.19743 471.97 10.5 475.793 10.5C479.627 10.5 481.537 8.19672 483.593 5.68343L483.631 5.63752C485.654 3.16435 487.833 0.5 492.153 0.5C496.487 0.5 498.671 3.17009 500.697 5.64649L500.727 5.68343C502.783 8.19744 504.689 10.5 508.512 10.5C512.346 10.5 514.256 8.1967 516.315 5.68321L516.349 5.64177C518.375 3.16686 520.559 0.5 524.891 0.5C529.223 0.5 531.407 3.16702 533.433 5.64201L533.467 5.6832C535.526 8.1967 537.436 10.5 541.27 10.5C545.103 10.5 547.014 8.19673 549.072 5.68321L549.106 5.64214C551.132 3.1671 553.316 0.5 557.648 0.5C561.98 0.5 564.164 3.16702 566.191 5.64201L566.225 5.6832C568.283 8.1967 570.194 10.5 574.028 10.5C577.861 10.5 579.771 8.19673 581.83 5.68321L581.863 5.64204C583.89 3.16703 586.074 0.5 590.406 0.5C594.738 0.5 596.922 3.16702 598.949 5.64201L598.982 5.6832C601.041 8.19671 602.951 10.5 606.785 10.5C610.618 10.5 612.529 8.19671 614.587 5.68321L614.621 5.6418C616.648 3.16687 618.832 0.5 623.164 0.5C627.498 0.5 629.682 3.16997 631.707 5.64631L631.738 5.68343C633.794 8.19743 635.7 10.5 639.523 10.5C643.357 10.5 645.268 8.19671 647.323 5.68343L647.361 5.63742C649.384 3.16427 651.563 0.5 655.883 0.5C660.217 0.5 662.401 3.17005 664.427 5.64644L664.457 5.68343C666.513 8.19744 668.419 10.5 672.242 10.5C676.076 10.5 677.987 8.1967 680.045 5.68321L680.079 5.64177C682.106 3.16686 684.289 0.5 688.621 0.5C692.953 0.5 695.137 3.16702 697.164 5.64201L697.197 5.6832C699.256 8.1967 701.166 10.5 705 10.5H705.5V11.5H705C700.668 11.5 698.484 8.83298 696.457 6.35799L696.424 6.3168C694.365 3.8033 692.454 1.5 688.621 1.5C684.788 1.5 682.877 3.80327 680.819 6.31679L680.785 6.35786C678.758 8.8329 676.574 11.5 672.242 11.5C667.922 11.5 665.743 8.83565 663.72 6.36247L663.683 6.31657C661.627 3.80328 659.716 1.5 655.883 1.5C652.059 1.5 650.154 3.80256 648.097 6.31657L648.067 6.35357C646.042 8.82995 643.858 11.5 639.523 11.5C635.203 11.5 633.024 8.83556 631.001 6.36235L630.964 6.31657C628.908 3.80328 626.997 1.5 623.164 1.5C619.33 1.5 617.419 3.80329 615.361 6.31679L615.327 6.3582C613.3 8.83313 611.117 11.5 606.785 11.5C602.453 11.5 600.269 8.83298 598.242 6.35799L598.209 6.3168C596.15 3.80329 594.24 1.5 590.406 1.5C586.572 1.5 584.662 3.80329 582.603 6.31679L582.57 6.35823C580.543 8.83314 578.359 11.5 574.028 11.5C569.696 11.5 567.512 8.83298 565.485 6.35799L565.451 6.3168C563.393 3.8033 561.482 1.5 557.648 1.5C553.815 1.5 551.904 3.8033 549.846 6.31679L549.812 6.35823C547.785 8.83314 545.601 11.5 541.27 11.5C536.938 11.5 534.754 8.83298 532.727 6.35799L532.693 6.3168C530.635 3.8033 528.724 1.5 524.891 1.5C521.057 1.5 519.147 3.80327 517.088 6.31679L517.055 6.35791C515.028 8.83293 512.844 11.5 508.512 11.5C504.192 11.5 502.013 8.83565 499.99 6.36248L499.953 6.31657C497.897 3.80328 495.986 1.5 492.153 1.5C488.329 1.5 486.424 3.80256 484.367 6.31657L484.337 6.35356C482.311 8.82995 480.127 11.5 475.793 11.5C471.473 11.5 469.294 8.83557 467.271 6.36235L467.233 6.31657C465.178 3.80328 463.267 1.5 459.433 1.5C455.6 1.5 453.689 3.80329 451.631 6.3168L451.597 6.3581C449.57 8.83306 447.386 11.5 443.054 11.5C438.723 11.5 436.539 8.83306 434.512 6.35809L434.478 6.3168C432.42 3.8033 430.509 1.5 426.675 1.5C422.842 1.5 420.931 3.80327 418.873 6.31679L418.839 6.35791C416.813 8.83293 414.629 11.5 410.297 11.5C405.977 11.5 403.798 8.83565 401.775 6.36248L401.737 6.31657C399.682 3.80328 397.771 1.5 393.937 1.5C390.114 1.5 388.208 3.80256 386.152 6.31657L386.122 6.35351C384.096 8.82991 381.912 11.5 377.578 11.5C373.258 11.5 371.078 8.83556 369.055 6.36235L369.018 6.31657C366.962 3.80328 365.052 1.5 361.218 1.5C357.385 1.5 355.474 3.80329 353.415 6.31679L353.382 6.35804C351.355 8.83302 349.171 11.5 344.839 11.5C340.507 11.5 338.324 8.83302 336.297 6.35805L336.263 6.31679C334.205 3.80329 332.294 1.5 328.46 1.5C324.627 1.5 322.716 3.8033 320.658 6.31679L320.624 6.35813C318.597 8.83307 316.413 11.5 312.082 11.5C307.75 11.5 305.566 8.83302 303.539 6.35804L303.506 6.3168C301.447 3.8033 299.536 1.5 295.703 1.5C291.869 1.5 289.958 3.8033 287.9 6.31679L287.866 6.35818C285.84 8.8331 283.656 11.5 279.324 11.5C274.992 11.5 272.808 8.83306 270.782 6.35809L270.748 6.3168C268.689 3.8033 266.779 1.5 262.945 1.5C259.112 1.5 257.201 3.80327 255.143 6.31679L255.109 6.35794C253.082 8.83295 250.898 11.5 246.567 11.5C242.247 11.5 240.067 8.83567 238.045 6.3625L238.007 6.31657C235.951 3.80328 234.041 1.5 230.207 1.5C226.384 1.5 224.478 3.80256 222.422 6.31657L222.391 6.35351C220.366 8.82991 218.182 11.5 213.847 11.5C209.527 11.5 207.348 8.83559 205.325 6.36238L205.288 6.31657C203.232 3.80328 201.321 1.5 197.488 1.5C193.654 1.5 191.744 3.80329 189.685 6.31679L189.651 6.3581C187.625 8.83306 185.441 11.5 181.109 11.5C176.777 11.5 174.593 8.83302 172.567 6.35805L172.533 6.31679C170.474 3.80329 168.564 1.5 164.73 1.5C160.897 1.5 158.986 3.8033 156.928 6.31679L156.894 6.35823C154.867 8.83314 152.683 11.5 148.352 11.5C144.02 11.5 141.836 8.83304 139.809 6.35807L139.775 6.3168C137.717 3.8033 135.806 1.5 131.973 1.5C128.139 1.5 126.228 3.8033 124.17 6.31679L124.136 6.3582C122.109 8.83311 119.925 11.5 115.594 11.5C111.262 11.5 109.078 8.83304 107.051 6.35807L107.018 6.3168C104.959 3.8033 103.048 1.5 99.2148 1.5C95.3815 1.5 93.471 3.80327 91.4126 6.31679L91.379 6.35793C89.3522 8.83294 87.1682 11.5 82.8363 11.5C78.5164 11.5 76.3373 8.83567 74.3144 6.3625L74.2769 6.31657C72.2211 3.80328 70.3103 1.5 66.4768 1.5C62.6534 1.5 60.7478 3.80256 58.6914 6.31657L58.6611 6.35352C56.6356 8.82992 54.4516 11.5 50.1172 11.5C45.7971 11.5 43.6179 8.8356 41.595 6.3624L41.5576 6.31657C39.5017 3.80328 37.591 1.5 33.7576 1.5C29.924 1.5 28.0134 3.80329 25.955 6.31679L25.9212 6.35807C23.8945 8.83304 21.7106 11.5 17.3788 11.5C13.047 11.5 10.8631 8.83304 8.83636 6.35807L8.80256 6.31679C6.74415 3.80329 4.83353 1.5 1 1.5H0.5V0.5Z" fill="#A1A6B4"/>
</svg>
