<svg width="47" height="47" viewBox="0 0 47 47" fill="none" xmlns="http://www.w3.org/2000/svg">
<g clip-path="url(#clip0_309_4730)">
<path d="M23.5 47C36.4785 47 47 36.4786 47 23.5C47 10.5213 36.4785 0 23.5 0C10.5215 0 0 10.5213 0 23.5C0 36.4786 10.5215 47 23.5 47Z" fill="#F0D288"/>
<path d="M39.8052 10.6782L31.0892 7.46544L18.5547 25.5297L19.8028 17.3315L12.9732 13.3532L0.40863 28.4681C0.996879 31.4568 2.13882 34.2438 3.72195 36.7162L11.2181 27.6622L8.45969 38.2961L17.007 41.4236L29.7057 23.1391L26.9236 33.5952L33.8476 37.6421L47.1362 24.2461C47.1391 24.0957 47.1407 23.9439 47.1407 23.7929C47.1407 20.6391 46.5339 17.6281 45.4322 14.8731L37.713 22.6865L39.8052 10.6782Z" fill="#121723"/>
</g>
<defs>
<clipPath id="clip0_309_4730">
<rect width="47" height="47" rx="23.5" fill="white"/>
</clipPath>
</defs>
</svg>
