<svg width="257" height="400" viewBox="0 0 257 400" fill="none" xmlns="http://www.w3.org/2000/svg">
<path d="M73.4159 86C33.4215 86 1 96.2609 1 108.918C1 121.576 33.4215 131.837 73.4159 131.837C95.8298 131.837 114 127.493 114 122.135C114 116.777 95.8298 112.433 73.4159 112.433C33.4215 112.433 1 122.694 1 135.352C1 148.009 33.4215 158.271 73.4159 158.271C95.8298 158.271 114 153.927 114 148.569C114 143.21 95.8298 138.867 73.4159 138.867C33.4215 138.867 1 149.191 1 161.926C1 174.661 33.4215 184.985 73.4159 184.985C95.8298 184.985 114 180.641 114 175.283C114 169.925 95.8298 165.582 73.4159 165.582C33.4215 165.582 1 175.842 1 188.5C1 201.158 33.4215 211.418 73.4159 211.418C95.8298 211.418 114 207.075 114 201.717C114 196.359 95.8298 192.015 73.4159 192.015C33.4215 192.015 1 202.276 1 214.934C1 227.591 33.4215 237.852 73.4159 237.852C95.8298 237.852 114 233.508 114 228.151C114 222.792 95.8298 218.449 73.4159 218.449C33.4215 218.449 1 228.71 1 241.367C1 254.024 33.4215 264.285 73.4159 264.285C95.8298 264.285 114 259.942 114 254.583C114 249.226 95.8298 244.882 73.4159 244.882C33.4215 244.882 1 255.206 1 267.941C1 280.676 33.4215 291 73.4159 291M73.4159 245C33.4215 245 1 255.261 1 267.918C1 280.576 33.4215 290.837 73.4159 290.837C95.8298 290.837 114 286.493 114 281.135C114 275.777 95.8298 271.433 73.4159 271.433C33.4215 271.433 1 281.694 1 294.352C1 307.009 33.4215 317.271 73.4159 317.271C95.8298 317.271 114 312.927 114 307.569C114 302.211 95.8298 297.867 73.4159 297.867C33.4215 297.867 1 308.191 1 320.926C1 333.661 33.4215 343.985 73.4159 343.985C95.8298 343.985 114 339.641 114 334.283C114 328.925 95.8298 324.582 73.4159 324.582C33.4215 324.582 1 334.842 1 347.5C1 360.158 33.4215 370.418 73.4159 370.418C95.8298 370.418 114 366.075 114 360.717C114 355.359 95.8298 351.015 73.4159 351.015C33.4215 351.015 1 361.276 1 373.934C1 386.591 33.4215 396.852 73.4159 396.852C95.8298 396.852 114 392.508 114 387.151C114 381.792 95.8298 377.449 73.4159 377.449C33.4215 377.449 1 387.71 1 400.367C1 413.024 33.4215 423.285 73.4159 423.285C95.8298 423.285 114 418.942 114 413.583C114 408.226 95.8298 403.882 73.4159 403.882C33.4215 403.882 1 414.206 1 426.941C1 439.676 33.4215 450 73.4159 450" stroke="#A1A6B4" stroke-linecap="round"/>
<path d="M215.775 -50C176.135 -50 144 -39.7391 144 -27.0816C144 -14.4242 176.135 -4.16321 215.775 -4.16321C237.991 -4.16321 256 -8.50679 256 -13.8649C256 -19.223 237.991 -23.5665 215.775 -23.5665C176.135 -23.5665 144 -13.3056 144 -0.648186C144 12.0094 176.135 22.2706 215.775 22.2706C237.991 22.2706 256 17.9268 256 12.5686C256 7.21049 237.991 2.86692 215.775 2.86692C176.135 2.86692 144 13.1908 144 25.9259C144 38.6609 176.135 48.9851 215.775 48.9851C237.991 48.9851 256 44.6414 256 39.2831C256 33.9249 237.991 29.582 215.775 29.582C176.135 29.582 144 39.8425 144 52.5C144 65.1575 176.135 75.418 215.775 75.418C237.991 75.418 256 71.0751 256 65.7169C256 60.3586 237.991 56.0149 215.775 56.0149C176.135 56.0149 144 66.2762 144 78.9337C144 91.5912 176.135 101.852 215.775 101.852C237.991 101.852 256 97.508 256 92.1506C256 86.7923 237.991 82.4485 215.775 82.4485C176.135 82.4485 144 92.7099 144 105.367C144 118.024 176.135 128.285 215.775 128.285C237.991 128.285 256 123.942 256 118.583C256 113.226 237.991 108.882 215.775 108.882C176.135 108.882 144 119.206 144 131.941C144 144.676 176.135 155 215.775 155M215.775 109C176.135 109 144 119.261 144 131.918C144 144.576 176.135 154.837 215.775 154.837C237.991 154.837 256 150.493 256 145.135C256 139.777 237.991 135.433 215.775 135.433C176.135 135.433 144 145.694 144 158.352C144 171.009 176.135 181.271 215.775 181.271C237.991 181.271 256 176.927 256 171.569C256 166.211 237.991 161.867 215.775 161.867C176.135 161.867 144 172.191 144 184.926C144 197.661 176.135 207.985 215.775 207.985C237.991 207.985 256 203.641 256 198.283C256 192.925 237.991 188.582 215.775 188.582C176.135 188.582 144 198.842 144 211.5C144 224.158 176.135 234.418 215.775 234.418C237.991 234.418 256 230.075 256 224.717C256 219.359 237.991 215.015 215.775 215.015C176.135 215.015 144 225.276 144 237.934C144 250.591 176.135 260.852 215.775 260.852C237.991 260.852 256 256.508 256 251.151C256 245.792 237.991 241.449 215.775 241.449C176.135 241.449 144 251.71 144 264.367C144 277.024 176.135 287.285 215.775 287.285C237.991 287.285 256 282.942 256 277.583C256 272.226 237.991 267.882 215.775 267.882C176.135 267.882 144 278.206 144 290.941C144 303.676 176.135 314 215.775 314" stroke="#A1A6B4" stroke-linecap="round"/>
</svg>
